<?xml version="1.0" encoding="utf-8"?>
<!-- Generator: Adobe Illustrator 26.0.3, SVG Export Plug-In . SVG Version: 6.00 Build 0)  -->
<svg version="1.1" id="Слой_1" xmlns="http://www.w3.org/2000/svg" xmlns:xlink="http://www.w3.org/1999/xlink" x="0px" y="0px"
	 viewBox="0 0 187 44" style="enable-background:new 0 0 187 44;" xml:space="preserve">
<path d="M76.1,20.9c0-4.8-2.2-10.9-11.4-10.9H52.3v21.6h12.4C74.2,31.7,76.1,25.2,76.1,20.9z M61,26.3V15.1h1.7
	c2.1,0,4.3,0.7,4.3,5.7c0,4.9-2.3,5.4-4.3,5.4L61,26.3z M86,25.7c0-2.8,2.1-4.2,4.5-4.2c0.6,0,1.2,0.1,1.7,0.2v-6.5
	c-0.4-0.1-1-0.2-1.4-0.2c-2.7,0-4.5,2-5.1,4.1h-0.1v-3.7h-7.7v16.2H86V25.7z M92.2,31.7h6.9v-6h-6.9V31.7z M124.6,23.9h-0.1L121,10
	h-8.3l-3.6,13.9h-0.1L106.2,10h-8.1l5.3,21.6h9.5l3.6-14.1h0.1l3.8,14.1h9.3l5.5-21.6h-7.7L124.6,23.9z M145.2,23.2h10.6v-4.8h-10.6
	v-3.3h11.2V10h-19.9v21.6h19.9v-5.1h-11.2V23.2z M175.7,20.8v-0.1c2.8-0.5,4.6-2.5,4.6-5c0-2-1.3-5.6-8.4-5.6h-13.6v21.6h13.2
	c2.9,0,9.4-0.3,9.4-5.8C180.8,22.5,178,21.1,175.7,20.8z M166.5,14.4h2.2c2.4,0,3.1,1.2,3.1,2.1c0,0.6-0.3,2.1-3.3,2.1h-2V14.4z
	 M168.7,27.3h-2.2v-4.4h2c0.7,0,3.4,0,3.4,2.2C171.9,25.8,171.5,27.3,168.7,27.3z M21.1,16l6.6-3.5l6.6,3.6c0.2-0.4,0.3-0.9,0.3-1.4
	c0-2.8-3.1-5.1-6.9-5.1c-3.8,0-6.9,2.3-6.9,5.1C20.8,15.2,20.9,15.6,21.1,16z M38.3,15.7l4.5-0.9l0.9,3.2l2.3-6.9l-9.1,2.8
	L38.3,15.7z M39.5,19.9l4.2,1l-0.9,2.7l6.3-3.3l-10.2-2.9L39.5,19.9z M34.6,37.6l10-11.6l-5.3-3.1L34.6,37.6z M33.9,10.5l1.9,1.9
	l5.1-6.1h-7.3l2.7,1.6L33.9,10.5z M21.4,10.5l-2.5-2.5l2.7-1.6h-7.3l5.1,6.1L21.4,10.5z M10.8,25.9l10,11.6l-4.6-14.7L10.8,25.9z
	 M12.5,14.8l4.5,0.9l1.4-1.8l-9.1-2.8l2.3,6.9L12.5,14.8z M11.7,20.8l4.2-1l0.6-2.6L6.2,20.2l6.3,3.3L11.7,20.8z M24.1,16.5l0.9,3.2
	h0l1.2-3.5h2.8l1.3,3.5h0l0.8-3.2l-3.5-2L24.1,16.5z M37.3,19.8l-3.7-2l-1.3,3.9h-3.3l-1.3-3.6h0l-1.3,3.6h-3.3l-1.3-3.9l-3.7,2
	c0,0-1.3,4.6,3.8,8.4c1.8,1.3,3.1,2.2,4.4,2.6L26,30.1h3.4l-0.2,0.7c1.2-0.4,2.5-1.3,4.3-2.6C38.6,24.4,37.3,19.8,37.3,19.8z
	 M29.7,29h-4.2l-0.5-1.3h5.1L29.7,29z M30.6,26.6h-5.8l-0.5-1.3H31L30.6,26.6z M31.4,24.1h-7.5l-0.5-1.3h8.4L31.4,24.1z"/>
</svg>
