<svg width="310" height="148" viewBox="0 0 310 148" fill="none" xmlns="http://www.w3.org/2000/svg">
<rect x="1.5" y="1.5" width="307" height="145" fill="white"/>
<rect x="1.5" y="1.5" width="307" height="145" stroke="#69B42E" stroke-width="3"/>

<!-- Название компании сверху -->
<text x="155" y="25" font-family="Arial, sans-serif" font-size="18" font-weight="bold" text-anchor="middle" fill="#69B42E">Гундырев.рф</text>

<!-- Логотип Dr.Web в центре -->
<g transform="translate(0, 10)">
<path d="M129.376 46.0768C129.376 38.6855 126.041 29.1394 112.354 29.1394H93.7798V62.7232H112.354C126.519 62.7232 129.376 52.7461 129.376 46.0768ZM106.739 54.33V37.0909H109.356C112.496 37.0909 115.743 38.1684 115.743 45.9152C115.743 53.4572 112.257 54.3623 109.356 54.3623L106.739 54.33ZM144.246 53.6081C144.246 49.2983 147.157 46.9387 150.764 46.9387C151.613 46.9655 152.456 47.0958 153.273 47.3266V37.2525C152.625 37.0995 151.962 37.0199 151.296 37.0155C147.233 37.0155 144.626 40.1293 143.692 43.297H143.486V37.5865H132.102V62.7232H144.246V53.6081ZM163.799 53.4896H153.327V62.7879H163.875L163.799 53.4896ZM184.22 62.7232L189.542 40.8512H189.868L195.473 62.7232H209.41L217.535 29.2364H205.923L201.817 50.6343H201.643L196.386 29.2364H183.959L178.593 50.6343H178.398L174.335 29.2364H162.191L170.066 62.7232H184.22ZM249.296 54.804H232.449V49.5785H248.318V41.9071H232.449V37.0586H249.035V29.1394H219.479V62.7232H249.372L249.296 54.804ZM285.924 53.7266C285.924 48.4471 281.666 46.2384 278.32 45.7535V45.5488C280.216 45.3107 281.959 44.3964 283.224 42.9768C284.489 41.5571 285.19 39.7292 285.196 37.8343C285.196 34.7098 283.263 29.0963 272.672 29.0963H252.338V62.7232H272.02C276.332 62.7232 286 62.2492 286 53.7589L285.924 53.7266ZM264.623 35.9488H267.958C271.531 35.9488 272.552 37.7805 272.552 39.1811C272.552 40.1401 272.118 42.4135 267.664 42.4135H264.623V35.9488ZM264.623 55.9138V49.0505H267.621C268.707 49.0505 272.759 49.0505 272.759 52.4552C272.759 53.662 272.064 55.9138 267.903 55.9138H264.623ZM46.3656 38.7933L56.2612 33.3199L66.2111 38.8364C66.4574 38.1663 66.586 37.4593 66.5913 36.7461C66.5913 32.4364 61.9748 28.9024 56.3046 28.9024C50.6345 28.9024 46.018 32.4148 46.018 36.7461C46.023 37.4425 46.1404 38.1336 46.3656 38.7933ZM73.9668 44.6976L80.2127 46.1953L78.8983 50.3003L88.4138 45.2471L73.0653 40.7542L73.9668 44.6976ZM66.5913 72L81.5162 54.0498L73.5541 49.2875L66.5913 72ZM65.5811 30.2923L68.4379 33.2768L76.1067 24H65.2444L69.296 26.4781L65.5811 30.2923ZM72.1745 38.2114L78.9744 36.8539L80.3756 41.7455L83.7538 31.1219L70.1541 35.4317L72.1745 38.2114ZM30.8976 54.0498L45.8225 72L38.8814 49.2875L30.8976 54.0498ZM32.2011 46.1953L38.4469 44.6976L39.3376 40.7542L24 45.2471L33.5154 50.3003L32.2011 46.1953ZM33.4502 36.8539L40.2392 38.2114L42.2705 35.4317L28.6708 31.1219L32.049 41.7455L33.4502 36.8539ZM46.8435 30.2923L43.096 26.4781L47.2346 24H36.3722L44.041 33.3306L46.8435 30.2923ZM50.9061 39.4182L52.2638 44.4714H52.3399L54.1756 39.0842H58.4337L60.378 44.4714H60.4432L61.5294 39.4936L56.2612 36.4337L50.9061 39.4182ZM70.6104 44.5899L65.0597 41.4438L63.061 47.4667H58.1078L56.2612 41.9394H56.196L54.3168 47.4667H49.3419L47.3323 41.4545L41.7925 44.5791C41.7925 44.5791 39.7721 51.6795 47.4735 57.5084C49.4293 59.1578 51.627 60.5021 53.991 61.495L53.6542 60.4822H58.7487L58.4119 61.5596C60.7846 60.5788 62.9846 59.2294 64.9293 57.5623C72.5547 51.6148 70.6429 44.5899 70.6429 44.5899H70.6104ZM59.3135 58.7475H53.0677L52.3942 56.7219H59.9978L59.3135 58.7475ZM60.6061 54.9872H51.8619L51.1885 52.9616H61.2796L60.6061 54.9872ZM61.8553 51.2269H50.591L49.9176 49.2014H62.5179L61.8553 51.2269Z" fill="black"/>
</g>

<!-- Зеленая полоса внизу -->
<rect width="262" height="30" transform="translate(24, 104)" fill="#69B42E"/>

<!-- ФИО внизу -->
<text x="155" y="125" font-family="Arial, sans-serif" font-size="16" font-weight="bold" text-anchor="middle" fill="white">Гундырев М. А.</text>
</svg>