<svg width="310" height="148" viewBox="0 0 310 148" fill="none" xmlns="http://www.w3.org/2000/svg">
<rect x="1.5" y="1.5" width="307" height="145" fill="white"/>
<rect x="1.5" y="1.5" width="307" height="145" stroke="#69B42E" stroke-width="3"/>
<path d="M129.376 46.0768C129.376 38.6855 126.041 29.1394 112.354 29.1394H93.7798V62.7232H112.354C126.519 62.7232 129.376 52.7461 129.376 46.0768ZM106.739 54.33V37.0909H109.356C112.496 37.0909 115.743 38.1684 115.743 45.9152C115.743 53.4572 112.257 54.3623 109.356 54.3623L106.739 54.33ZM144.246 53.6081C144.246 49.2983 147.157 46.9387 150.764 46.9387C151.613 46.9655 152.456 47.0958 153.273 47.3266V37.2525C152.625 37.0995 151.962 37.0199 151.296 37.0155C147.233 37.0155 144.626 40.1293 143.692 43.297H143.486V37.5865H132.102V62.7232H144.246V53.6081ZM163.799 53.4896H153.327V62.7879H163.875L163.799 53.4896ZM184.22 62.7232L189.542 40.8512H189.868L195.473 62.7232H209.41L217.535 29.2364H205.923L201.817 50.6343H201.643L196.386 29.2364H183.959L178.593 50.6343H178.398L174.335 29.2364H162.191L170.066 62.7232H184.22ZM249.296 54.804H232.449V49.5785H248.318V41.9071H232.449V37.0586H249.035V29.1394H219.479V62.7232H249.372L249.296 54.804ZM285.924 53.7266C285.924 48.4471 281.666 46.2384 278.32 45.7535V45.5488C280.216 45.3107 281.959 44.3964 283.224 42.9768C284.489 41.5571 285.19 39.7292 285.196 37.8343C285.196 34.7098 283.263 29.0963 272.672 29.0963H252.338V62.7232H272.02C276.332 62.7232 286 62.2492 286 53.7589L285.924 53.7266ZM264.623 35.9488H267.958C271.531 35.9488 272.552 37.7805 272.552 39.1811C272.552 40.1401 272.118 42.4135 267.664 42.4135H264.623V35.9488ZM264.623 55.9138V49.0505H267.621C268.707 49.0505 272.759 49.0505 272.759 52.4552C272.759 53.662 272.064 55.9138 267.903 55.9138H264.623ZM46.3656 38.7933L56.2612 33.3199L66.2111 38.8364C66.4574 38.1663 66.586 37.4593 66.5913 36.7461C66.5913 32.4364 61.9748 28.9024 56.3046 28.9024C50.6345 28.9024 46.018 32.4148 46.018 36.7461C46.023 37.4425 46.1404 38.1336 46.3656 38.7933ZM73.9668 44.6976L80.2127 46.1953L78.8983 50.3003L88.4138 45.2471L73.0653 40.7542L73.9668 44.6976ZM66.5913 72L81.5162 54.0498L73.5541 49.2875L66.5913 72ZM65.5811 30.2923L68.4379 33.2768L76.1067 24H65.2444L69.296 26.4781L65.5811 30.2923ZM72.1745 38.2114L78.9744 36.8539L80.3756 41.7455L83.7538 31.1219L70.1541 35.4317L72.1745 38.2114ZM30.8976 54.0498L45.8225 72L38.8814 49.2875L30.8976 54.0498ZM32.2011 46.1953L38.4469 44.6976L39.3376 40.7542L24 45.2471L33.5154 50.3003L32.2011 46.1953ZM33.4502 36.8539L40.2392 38.2114L42.2705 35.4317L28.6708 31.1219L32.049 41.7455L33.4502 36.8539ZM46.8435 30.2923L43.096 26.4781L47.2346 24H36.3722L44.041 33.3306L46.8435 30.2923ZM50.9061 39.4182L52.2638 44.4714H52.3399L54.1756 39.0842H58.4337L60.378 44.4714H60.4432L61.5294 39.4936L56.2612 36.4337L50.9061 39.4182ZM70.6104 44.5899L65.0597 41.4438L63.061 47.4667H58.1078L56.2612 41.9394H56.196L54.3168 47.4667H49.3419L47.3323 41.4545L41.7925 44.5791C41.7925 44.5791 39.7721 51.6795 47.4735 57.5084C49.4293 59.1578 51.627 60.5021 53.991 61.495L53.6542 60.4822H58.7487L58.4119 61.5596C60.7846 60.5788 62.9846 59.2294 64.9293 57.5623C72.5547 51.6148 70.6429 44.5899 70.6429 44.5899H70.6104ZM59.3135 58.7475H53.0677L52.3942 56.7219H59.9978L59.3135 58.7475ZM60.6061 54.9872H51.8619L51.1885 52.9616H61.2796L60.6061 54.9872ZM61.8553 51.2269H50.591L49.9176 49.2014H62.5179L61.8553 51.2269Z" fill="black"/>
<rect width="262" height="40" transform="translate(24 84)" fill="#69B42E"/>
<path d="M49.6816 111V95.9678H51.6709V102.141H59.4844V95.9678H61.4736V111H59.4844V103.915H51.6709V111H49.6816ZM71.666 109.657C70.9824 110.238 70.3228 110.648 69.687 110.887C69.0581 111.126 68.3813 111.246 67.6567 111.246C66.4604 111.246 65.541 110.956 64.8984 110.375C64.2559 109.787 63.9346 109.038 63.9346 108.129C63.9346 107.596 64.0542 107.11 64.2935 106.673C64.5396 106.229 64.8574 105.873 65.2471 105.606C65.6436 105.34 66.0879 105.138 66.5801 105.001C66.9424 104.906 67.4893 104.813 68.2207 104.725C69.7109 104.547 70.8081 104.335 71.5122 104.089C71.519 103.836 71.5225 103.675 71.5225 103.607C71.5225 102.855 71.3481 102.325 70.9995 102.018C70.5278 101.601 69.8271 101.392 68.8975 101.392C68.0293 101.392 67.3867 101.546 66.9697 101.854C66.5596 102.154 66.2554 102.691 66.0571 103.463L64.2524 103.217C64.4165 102.445 64.6865 101.823 65.0625 101.351C65.4385 100.873 65.9819 100.507 66.6929 100.254C67.4038 99.9941 68.2275 99.8643 69.1641 99.8643C70.0938 99.8643 70.8491 99.9736 71.4302 100.192C72.0112 100.411 72.4385 100.688 72.7119 101.023C72.9854 101.351 73.1768 101.768 73.2861 102.274C73.3477 102.588 73.3784 103.156 73.3784 103.976V106.437C73.3784 108.153 73.416 109.24 73.4912 109.698C73.5732 110.149 73.7305 110.583 73.9629 111H72.0352C71.8438 110.617 71.7207 110.169 71.666 109.657ZM71.5122 105.535C70.8423 105.808 69.8374 106.041 68.4976 106.232C67.7388 106.341 67.2021 106.464 66.8877 106.601C66.5732 106.738 66.3306 106.939 66.1597 107.206C65.9888 107.466 65.9033 107.756 65.9033 108.078C65.9033 108.57 66.0879 108.98 66.457 109.308C66.833 109.636 67.3799 109.8 68.0977 109.8C68.8086 109.8 69.4409 109.646 69.9946 109.339C70.5483 109.024 70.9551 108.597 71.2148 108.057C71.4131 107.64 71.5122 107.025 71.5122 106.211V105.535ZM75.1011 100.11H76.9468V102.171C76.9468 103.06 76.998 103.706 77.1006 104.109C77.21 104.506 77.4663 104.854 77.8696 105.155C78.2729 105.449 78.7788 105.596 79.3872 105.596C80.0845 105.596 80.9868 105.412 82.0942 105.042V100.11H83.9399V111H82.0942V106.611C80.9595 106.967 79.8999 107.145 78.9155 107.145C78.0884 107.145 77.3569 106.936 76.7212 106.519C76.0923 106.095 75.665 105.579 75.4395 104.971C75.2139 104.362 75.1011 103.692 75.1011 102.961V100.11ZM86.729 100.11H88.5747V108.416L93.6914 100.11H95.6807V111H93.835V102.746L88.7183 111H86.729V100.11ZM98.4697 100.11H100.315V104.643H105.432V100.11H107.278V111H105.432V106.17H100.315V111H98.4697V100.11ZM117.173 109.657C116.489 110.238 115.83 110.648 115.194 110.887C114.565 111.126 113.888 111.246 113.164 111.246C111.967 111.246 111.048 110.956 110.405 110.375C109.763 109.787 109.441 109.038 109.441 108.129C109.441 107.596 109.561 107.11 109.8 106.673C110.046 106.229 110.364 105.873 110.754 105.606C111.15 105.34 111.595 105.138 112.087 105.001C112.449 104.906 112.996 104.813 113.728 104.725C115.218 104.547 116.315 104.335 117.019 104.089C117.026 103.836 117.029 103.675 117.029 103.607C117.029 102.855 116.855 102.325 116.506 102.018C116.035 101.601 115.334 101.392 114.404 101.392C113.536 101.392 112.894 101.546 112.477 101.854C112.066 102.154 111.762 102.691 111.564 103.463L109.759 103.217C109.923 102.445 110.193 101.823 110.569 101.351C110.945 100.873 111.489 100.507 112.2 100.254C112.911 99.9941 113.734 99.8643 114.671 99.8643C115.601 99.8643 116.356 99.9736 116.937 100.192C117.518 100.411 117.945 100.688 118.219 101.023C118.492 101.351 118.684 101.768 118.793 102.274C118.854 102.588 118.885 103.156 118.885 103.976V106.437C118.885 108.153 118.923 109.24 118.998 109.698C119.08 110.149 119.237 110.583 119.47 111H117.542C117.351 110.617 117.228 110.169 117.173 109.657ZM117.019 105.535C116.349 105.808 115.344 106.041 114.004 106.232C113.246 106.341 112.709 106.464 112.395 106.601C112.08 106.738 111.837 106.939 111.667 107.206C111.496 107.466 111.41 107.756 111.41 108.078C111.41 108.57 111.595 108.98 111.964 109.308C112.34 109.636 112.887 109.8 113.604 109.8C114.315 109.8 114.948 109.646 115.501 109.339C116.055 109.024 116.462 108.597 116.722 108.057C116.92 107.64 117.019 107.025 117.019 106.211V105.535ZM121.777 100.11H123.623V104.663H125.858C126.022 103.104 126.507 101.915 127.314 101.095C128.127 100.274 129.18 99.8643 130.472 99.8643C131.573 99.8643 132.441 100.086 133.077 100.531C133.712 100.975 134.235 101.587 134.646 102.366C135.062 103.146 135.271 104.195 135.271 105.514C135.271 107.394 134.844 108.819 133.989 109.79C133.135 110.761 131.976 111.246 130.513 111.246C129.153 111.246 128.062 110.795 127.242 109.893C126.422 108.99 125.96 107.753 125.858 106.181H123.623V111H121.777V100.11ZM130.575 101.433C129.672 101.433 128.968 101.782 128.462 102.479C127.963 103.169 127.714 104.14 127.714 105.391C127.714 106.888 127.967 107.985 128.473 108.683C128.979 109.38 129.655 109.729 130.503 109.729C131.344 109.729 132.031 109.407 132.564 108.765C133.104 108.115 133.374 107.073 133.374 105.637C133.374 104.236 133.142 103.187 132.677 102.489C132.212 101.785 131.511 101.433 130.575 101.433ZM137.568 100.11H139.414V109.482H143.618V100.11H145.463V109.482H149.678V100.11H151.513V109.482H152.733V114.086H151.206V111H137.568V100.11ZM154.794 100.11H156.64V108.416L161.757 100.11H163.746V111H161.9V102.746L156.784 111H154.794V100.11ZM166.525 100.11H168.371V108.416L173.487 100.11H175.477V111H173.631V102.746L168.514 111H166.525V100.11ZM172.934 95.9883H174.195C174.092 96.8428 173.778 97.499 173.251 97.957C172.732 98.415 172.038 98.644 171.17 98.644C170.295 98.644 169.594 98.4185 169.068 97.9673C168.548 97.5093 168.237 96.8496 168.135 95.9883H169.396C169.492 96.4531 169.68 96.8018 169.96 97.0342C170.247 97.2598 170.63 97.3726 171.108 97.3726C171.662 97.3726 172.079 97.2632 172.359 97.0444C172.646 96.8188 172.838 96.4668 172.934 95.9883ZM184.11 100.11H192.703V111H190.857V101.638H185.956V111H184.11V100.11ZM202.588 109.657C201.904 110.238 201.245 110.648 200.609 110.887C199.98 111.126 199.303 111.246 198.579 111.246C197.382 111.246 196.463 110.956 195.82 110.375C195.178 109.787 194.856 109.038 194.856 108.129C194.856 107.596 194.976 107.11 195.215 106.673C195.461 106.229 195.779 105.873 196.169 105.606C196.565 105.34 197.01 105.138 197.502 105.001C197.864 104.906 198.411 104.813 199.143 104.725C200.633 104.547 201.73 104.335 202.434 104.089C202.441 103.836 202.444 103.675 202.444 103.607C202.444 102.855 202.27 102.325 201.921 102.018C201.45 101.601 200.749 101.392 199.819 101.392C198.951 101.392 198.309 101.546 197.892 101.854C197.481 102.154 197.177 102.691 196.979 103.463L195.174 103.217C195.338 102.445 195.608 101.823 195.984 101.351C196.36 100.873 196.904 100.507 197.615 100.254C198.326 99.9941 199.149 99.8643 200.086 99.8643C201.016 99.8643 201.771 99.9736 202.352 100.192C202.933 100.411 203.36 100.688 203.634 101.023C203.907 101.351 204.099 101.768 204.208 102.274C204.27 102.588 204.3 103.156 204.3 103.976V106.437C204.3 108.153 204.338 109.24 204.413 109.698C204.495 110.149 204.652 110.583 204.885 111H202.957C202.766 110.617 202.643 110.169 202.588 109.657ZM202.434 105.535C201.764 105.808 200.759 106.041 199.419 106.232C198.661 106.341 198.124 106.464 197.81 106.601C197.495 106.738 197.252 106.939 197.082 107.206C196.911 107.466 196.825 107.756 196.825 108.078C196.825 108.57 197.01 108.98 197.379 109.308C197.755 109.636 198.302 109.8 199.02 109.8C199.73 109.8 200.363 109.646 200.917 109.339C201.47 109.024 201.877 108.597 202.137 108.057C202.335 107.64 202.434 107.025 202.434 106.211V105.535ZM207.171 115.173V100.11H208.853V101.525C209.25 100.972 209.697 100.558 210.196 100.285C210.695 100.004 211.3 99.8643 212.011 99.8643C212.941 99.8643 213.761 100.104 214.472 100.582C215.183 101.061 215.72 101.737 216.082 102.612C216.444 103.48 216.625 104.434 216.625 105.473C216.625 106.587 216.424 107.592 216.021 108.488C215.624 109.376 215.043 110.06 214.277 110.539C213.519 111.01 212.719 111.246 211.878 111.246C211.263 111.246 210.709 111.116 210.217 110.856C209.731 110.597 209.332 110.269 209.017 109.872V115.173H207.171ZM208.843 105.617C208.843 107.018 209.126 108.054 209.694 108.724C210.261 109.394 210.948 109.729 211.755 109.729C212.575 109.729 213.276 109.383 213.857 108.693C214.445 107.996 214.739 106.919 214.739 105.463C214.739 104.075 214.452 103.036 213.877 102.346C213.31 101.655 212.63 101.31 211.837 101.31C211.051 101.31 210.354 101.679 209.745 102.417C209.144 103.149 208.843 104.215 208.843 105.617ZM217.395 100.11H226.244V101.638H222.737V111H220.901V101.638H217.395V100.11ZM228.018 100.11H229.863V104.643H234.98V100.11H236.826V111H234.98V106.17H229.863V111H228.018V100.11ZM247.069 107.493L248.977 107.729C248.676 108.843 248.119 109.708 247.305 110.323C246.492 110.938 245.453 111.246 244.188 111.246C242.595 111.246 241.331 110.757 240.394 109.78C239.464 108.795 239 107.418 239 105.647C239 103.815 239.471 102.394 240.415 101.382C241.358 100.37 242.582 99.8643 244.085 99.8643C245.542 99.8643 246.731 100.36 247.654 101.351C248.577 102.342 249.038 103.737 249.038 105.535C249.038 105.644 249.035 105.808 249.028 106.027H240.907C240.975 107.223 241.313 108.139 241.922 108.775C242.53 109.411 243.289 109.729 244.198 109.729C244.875 109.729 245.453 109.551 245.931 109.195C246.41 108.84 246.789 108.272 247.069 107.493ZM241.009 104.509H247.09C247.008 103.593 246.775 102.906 246.393 102.448C245.805 101.737 245.042 101.382 244.106 101.382C243.258 101.382 242.544 101.666 241.963 102.233C241.389 102.8 241.071 103.559 241.009 104.509ZM251.304 115.173V100.11H252.986V101.525C253.382 100.972 253.83 100.558 254.329 100.285C254.828 100.004 255.433 99.8643 256.144 99.8643C257.074 99.8643 257.894 100.104 258.605 100.582C259.316 101.061 259.853 101.737 260.215 102.612C260.577 103.48 260.758 104.434 260.758 105.473C260.758 106.587 260.557 107.592 260.153 108.488C259.757 109.376 259.176 110.06 258.41 110.539C257.651 111.01 256.852 111.246 256.011 111.246C255.396 111.246 254.842 111.116 254.35 110.856C253.864 110.597 253.464 110.269 253.15 109.872V115.173H251.304ZM252.976 105.617C252.976 107.018 253.259 108.054 253.827 108.724C254.394 109.394 255.081 109.729 255.888 109.729C256.708 109.729 257.409 109.383 257.99 108.693C258.578 107.996 258.872 106.919 258.872 105.463C258.872 104.075 258.584 103.036 258.01 102.346C257.443 101.655 256.763 101.31 255.97 101.31C255.184 101.31 254.486 101.679 253.878 102.417C253.276 103.149 252.976 104.215 252.976 105.617Z" fill="white"/>
</svg>
